# xmcd
#
# Track frame offsets:
#	150
#	14628
#	41613
#	56883
#	69275
#	91828
#	101733
#	129593
#	144543
#	157063
#
# Disc length: 2318 seconds
#
# Revision: 0
# Processed by: cddbd v1.5PL3 Copyright (c) Steve Scherf et al.
# Submitted via: dBpowerAMP V4.0
#
DISCID=8c090c0a
DTITLE=Eddie Shaw - Movin' And Groovin' man
DYEAR=1993
DGENRE=Blues
TTITLE0=Highway Bound
TTITLE1=Blues Dues
TTITLE2=Blues For Tomako
TTITLE3=Dunkin' Donut Woman
TTITLE4=Louisiana Blues
TTITLE5=Movin' And Groovin' Man
TTITLE6=Sad And Lonesome
TTITLE7=Big Leg Woman
TTITLE8=I've Got To Tell Somebody
TTITLE9=My Baby And Me
EXTD=
EXTT0=
EXTT1=
EXTT2=
EXTT3=
EXTT4=
EXTT5=
EXTT6=
EXTT7=
EXTT8=
EXTT9=
PLAYORDER=
